<svg id="Capa_1" data-name="Capa 1" xmlns="http://www.w3.org/2000/svg" viewBox="0 0 32 32"><defs><style>.cls-1{fill:#35fc03;}.cls-2{fill:#2a2a2a;}</style></defs><title>favicon</title><circle class="cls-1" cx="16" cy="16" r="16"/><path class="cls-2" d="M26.8,17.58h-.2a.19.19,0,0,0-.19.2v6.58a.25.25,0,0,1-.06.14L24.5,26.35a.25.25,0,0,1-.14.06H17.78a.19.19,0,0,0-.2.19v.2a.2.2,0,0,0,.2.2h6.78a.27.27,0,0,0,.21-.09l2.09-2.08a.5.5,0,0,0,.14-.35v-6.7A.2.2,0,0,0,26.8,17.58Z"/><path class="cls-2" d="M5.2,14.42h.2a.19.19,0,0,0,.19-.2V7.64a.25.25,0,0,1,.06-.14L7.5,5.65a.25.25,0,0,1,.14-.06h6.58a.19.19,0,0,0,.2-.19V5.2a.2.2,0,0,0-.2-.2H7.52a.5.5,0,0,0-.35.14L5.09,7.23A.27.27,0,0,0,5,7.44v6.78A.2.2,0,0,0,5.2,14.42Z"/><path class="cls-2" d="M14.22,26.41H7.64a.25.25,0,0,1-.14-.06L5.65,24.5a.25.25,0,0,1-.06-.14V17.78a.19.19,0,0,0-.19-.2H5.2a.2.2,0,0,0-.2.2v6.78a.27.27,0,0,0,.09.21l2.14,2.14a.27.27,0,0,0,.21.09h6.78a.2.2,0,0,0,.2-.2v-.2A.19.19,0,0,0,14.22,26.41Z"/><path class="cls-2" d="M24.56,5H17.78a.2.2,0,0,0-.2.2v.2a.19.19,0,0,0,.2.19h6.58a.25.25,0,0,1,.14.06L26.35,7.5a.25.25,0,0,1,.06.14v6.58a.19.19,0,0,0,.19.2h.2a.2.2,0,0,0,.2-.2V7.44a.27.27,0,0,0-.09-.21L24.77,5.09A.27.27,0,0,0,24.56,5Z"/><path class="cls-2" d="M23.7,25.31l1.55-1.55a.5.5,0,0,0,.14-.35V8.51a.3.3,0,0,0-.08-.21L23.7,6.69a.3.3,0,0,0-.21-.08H8.59a.5.5,0,0,0-.35.14L6.69,8.3a.3.3,0,0,0-.08.21v15a.3.3,0,0,0,.08.21L8.3,25.31a.3.3,0,0,0,.21.08h15A.3.3,0,0,0,23.7,25.31Zm-.41-.51H8.71a.2.2,0,0,1-.14-.06L7.26,23.43a.2.2,0,0,1-.06-.14V8.71a.2.2,0,0,1,.06-.14L8.57,7.26a.2.2,0,0,1,.14-.06H23.29a.2.2,0,0,1,.14.06l1.31,1.31a.2.2,0,0,1,.06.14V23.29a.2.2,0,0,1-.06.14l-1.31,1.31A.2.2,0,0,1,23.29,24.8Z"/><path class="cls-2" d="M22.63,8.3a.27.27,0,0,0-.21-.09H9.66a.47.47,0,0,0-.35.15l-1,1a.27.27,0,0,0-.09.21V22.42a.27.27,0,0,0,.09.21L9.37,23.7a.27.27,0,0,0,.21.09H22.42a.27.27,0,0,0,.21-.09l1-1a.47.47,0,0,0,.15-.35V9.58a.27.27,0,0,0-.09-.21ZM21.31,20.56a1.59,1.59,0,0,1,0,.34.64.64,0,0,1-.19.44.82.82,0,0,1-.5.16c-.23,0-1.08,0-1.5,0H12.37c-.42,0-.75,0-1,0a.82.82,0,0,1-.5-.16.64.64,0,0,1-.19-.44,1.59,1.59,0,0,1,0-.34V16.12c0-.36,0-.46,0-.66A.62.62,0,0,1,10.9,15a.82.82,0,0,1,.5-.17h.11a.56.56,0,0,0,.33-.1.7.7,0,0,0,.15-.48h0V11.39c0-.26,0-.32,0-.46a.45.45,0,0,1,.14-.31.62.62,0,0,1,.37-.12H19.4a.63.63,0,0,1,.38.12.41.41,0,0,1,.13.31,2.7,2.7,0,0,1,0,.46v2.67h0v.17a.71.71,0,0,0,.16.51.71.71,0,0,0,.37.11h.15a.73.73,0,0,1,.49.16.62.62,0,0,1,.19.44c0,.2,0,.3,0,.66Z"/><path class="cls-2" d="M15.09,14.43a.72.72,0,0,0,.39.11l.78,0,.77,0h.13a.57.57,0,0,0,.27-.1.43.43,0,0,0,.15-.3c0-.13,0-.33,0-.58v-1c0-.25,0-.45,0-.58a.48.48,0,0,0-.15-.31.73.73,0,0,0-.25-.09l-.15,0H15.48a.72.72,0,0,0-.39.11.4.4,0,0,0-.15.31c0,.13,0,.33,0,.58v1c0,.25,0,.45,0,.58A.37.37,0,0,0,15.09,14.43Z"/><path class="cls-2" d="M17.82,16.44a.94.94,0,0,0-.54-.15h-1l-1,0a.93.93,0,0,0-.53.15.55.55,0,0,0-.19.4,7.51,7.51,0,0,0,0,.77v1.33a7.59,7.59,0,0,0,0,.78.52.52,0,0,0,.19.39.93.93,0,0,0,.53.15l1,0,1,0a.94.94,0,0,0,.54-.15.52.52,0,0,0,.19-.39c0-.16,0-.38,0-.67V17.61a7.51,7.51,0,0,0,0-.77A.55.55,0,0,0,17.82,16.44Z"/></svg>