<svg id="Capa_2" data-name="Capa 2" xmlns="http://www.w3.org/2000/svg" viewBox="0 0 1079 363"><defs><style>.cls-1{fill:#35fc03;}.cls-2{fill:#2a2a2a;}</style></defs><title>C8_logoH_2</title><path class="cls-1" d="M981.34,101.13a26.71,26.71,0,0,0-7.83-18.88L953.43,62.18a26.81,26.81,0,0,0-19-7.93h-64a25.75,25.75,0,0,0-16.77,6.22A25.75,25.75,0,0,0,837,54.25H773.77a28.36,28.36,0,0,0-20.19,8.36L734,82.24a26.92,26.92,0,0,0-7.83,18.89v27.48a41.1,41.1,0,0,0-6.47-.84c-3.75-.21-15.1-.22-15.21-.22H681.08a30.11,30.11,0,0,0-11.16-16.8A31.54,31.54,0,0,0,654,104.61a64.32,64.32,0,0,0-6.61-.3H635.69a30,30,0,0,0-13.08-11.84,38.37,38.37,0,0,0-15-3.43c-2.59-.12-6-.19-10.19-.19s-7.76.07-10.35.19a38.24,38.24,0,0,0-14.8,3.43,30.07,30.07,0,0,0-13.1,11.85h-.42c-24.47,0-26.65.23-27.37.3a31.59,31.59,0,0,0-15.85,6.13A30.21,30.21,0,0,0,504,129.35c0,.14-.06.27-.08.41a37.06,37.06,0,0,0-3.77-1.1,43,43,0,0,0-9.4-1h-.5c-1.69-.09-3.2-.1-4.45-.1H468.31l-1.67,0h-.15c-1,0-1.95,0-2.93,0a55.4,55.4,0,0,0-10.55.9,33.79,33.79,0,0,0-14.79,6.74c-.38-.32-.77-.65-1.17-1-8.68-6.79-18-6.85-21.52-6.87h-.41l-2.13,0a51.53,51.53,0,0,0-10.44.94,32.37,32.37,0,0,0-3.7,1,33.45,33.45,0,0,0-6.47-1.33,64.74,64.74,0,0,0-6.61-.3H364.45c-1.89,0-3.79,0-5.68,0h-.18c-2.24,0-4.49-.06-6.73-.06-3.27,0-6,.06-8.69.21a34.58,34.58,0,0,0-7.48,1.22,29.58,29.58,0,0,0-8.75-1.31H273.89l-1.54,0h-.3c-1.17,0-2.4,0-3.65,0a50.48,50.48,0,0,0-15,1.93c-.69.21-1.38.45-2.06.71a40,40,0,0,0-10.8-2.25c-2.8-.21-5.71-.31-8.69-.31h-2.4a38.89,38.89,0,0,0-16,3,32.83,32.83,0,0,0-10.18-2.75c-2.6-.27-6.79-.3-8.47-.3H154.16a38.38,38.38,0,0,0-14.8,2.7,34.56,34.56,0,0,0-12.17,8.35,32.7,32.7,0,0,0-6.42,10.19,36.43,36.43,0,0,0-13.42,8.44c-6.12,6.12-9.35,14.37-9.35,23.85v34c0,4.64.1,8.24.31,11a32.82,32.82,0,0,0,31.32,31.33c2.77.21,6.37.31,11,.31h97.65a64.19,64.19,0,0,0,6.54-.29,32.86,32.86,0,0,0,7.84-1.77,37,37,0,0,0,8.93,1.75c3.57.27,9.23.31,12.29.31h15.46c3,0,8.48,0,12.09-.31a36.93,36.93,0,0,0,10.32-2.19A37.11,37.11,0,0,0,322,257.42c2.71.2,6.56.31,11.43.31H494.94a28.75,28.75,0,0,0,10.65-2,37.42,37.42,0,0,0,8.66,1.66c2.77.21,6.37.31,11,.31h15.47c4.52,0,8.07-.1,10.87-.31A30.88,30.88,0,0,0,571.15,249c6,5.71,14.05,8.73,23.21,8.73H717a64,64,0,0,0,6.54-.29c.88-.09,1.74-.22,2.59-.37v5.51a26.67,26.67,0,0,0,7.82,18.88l20.26,20.27a26.6,26.6,0,0,0,18.8,7.73h64a25.75,25.75,0,0,0,16.77-6.22,25.75,25.75,0,0,0,16.77,6.22h64a26.87,26.87,0,0,0,18.87-7.81L973,282a28.35,28.35,0,0,0,8.38-20.2V198.63a25.73,25.73,0,0,0-6.22-16.77,25.76,25.76,0,0,0,6.22-16.78Z"/><path class="cls-2" d="M702.51,156.93a8.21,8.21,0,0,0-4.64-1.38c-2.12-.13-5.08-.19-8.9-.19s-6.91.06-9,.19a8.05,8.05,0,0,0-4.56,1.38,5.22,5.22,0,0,0-1.7,3.77c-.16,1.72-.23,4.13-.23,7.23V180.5c0,3.19.07,5.62.23,7.29a5.13,5.13,0,0,0,1.7,3.71,7.9,7.9,0,0,0,4.56,1.38q3.09.19,9,.19c3.82,0,6.78-.06,8.9-.19a8.06,8.06,0,0,0,4.64-1.38,5.17,5.17,0,0,0,1.7-3.71q.22-2.5.23-7.29V167.93q0-4.65-.23-7.23A5.26,5.26,0,0,0,702.51,156.93Z"/><path class="cls-1" d="M244.48,209.2a4.68,4.68,0,0,0-2.4-.85c-1-.1-2.24-.16-3.79-.16H187q-5.88,0-9-.23a5.86,5.86,0,0,1-6.27-6.26q-.23-3.1-.23-9V177.26c0-3.82.08-6.78.23-8.9a7.17,7.17,0,0,1,1.7-4.64,7.09,7.09,0,0,1,4.57-1.7q3.09-.22,9-.23h7.73c1.55,0,4.66,0,5.64-.15a4.77,4.77,0,0,0,2.4-.86,3.54,3.54,0,0,0,1.24-2.24,25,25,0,0,0,.31-4.48,9.76,9.76,0,0,0-.31-3,3.54,3.54,0,0,0-1.24-2.24,4.68,4.68,0,0,0-2.4-.85c-1-.11-4.09-.16-5.64-.16H156.35c-2.26,0-4.6-.2-6.74.67a7.27,7.27,0,0,0-2.57,1.74,7.16,7.16,0,0,0-1.42,2.77c-.41,1.13-.84,2.26-1.27,3.38a17.87,17.87,0,0,1-9.13,9.12c-1.85.73-3.53,1.34-5,1.86a9.53,9.53,0,0,0-3.63,2.16q-1.4,1.39-1.39,4.64v34q0,5.88.23,9a5.87,5.87,0,0,0,6.26,6.27q3.1.23,9,.23h97.65a35.39,35.39,0,0,0,3.79-.16,4.68,4.68,0,0,0,2.4-.85,3.54,3.54,0,0,0,1.24-2.24,32.6,32.6,0,0,0,0-9A3.54,3.54,0,0,0,244.48,209.2Z"/><path class="cls-1" d="M497.53,209.2a4.68,4.68,0,0,0-2.4-.85c-1-.1,1.35-.16-.2-.16H379.8q-5.88,0-9-.23a5.86,5.86,0,0,1-6.27-6.26q-.22-3.1-.23-9V177.26c0-3.82.08-6.78.23-8.9a7.17,7.17,0,0,1,1.7-4.64,7.09,7.09,0,0,1,4.57-1.7q3.09-.22,9-.23h6c1.55,0,2.81,0,3.79-.15a4.77,4.77,0,0,0,2.4-.86,3.54,3.54,0,0,0,1.24-2.24,25,25,0,0,0,.31-4.48,9.76,9.76,0,0,0-.31-3,3.54,3.54,0,0,0-1.24-2.24,4.68,4.68,0,0,0-2.4-.85,35.39,35.39,0,0,0-3.79-.16H364.45c-6.56,0-13.23-.31-19.78.05a5.62,5.62,0,0,0-3.13,1,7.36,7.36,0,0,0-1.85,2.57c-1.87,3.6-3.38,7.47-6.29,10.38A16,16,0,0,1,328,165.5c-1.85.73-4,1.34-5.44,1.86a9.5,9.5,0,0,0-3.64,2.16q-1.39,1.39-1.39,4.64v34q0,5.88.23,9a5.87,5.87,0,0,0,6.26,6.27c2.07.15,5.47.23,9.4.23H494.93c1.55,0-.78,0,.2-.16a4.68,4.68,0,0,0,2.4-.85,3.57,3.57,0,0,0,1.23-2.24,32.6,32.6,0,0,0,0-9A3.57,3.57,0,0,0,497.53,209.2Z"/><path class="cls-1" d="M200.85,174.16v13.29a62.68,62.68,0,0,0,.24,6.67,5.86,5.86,0,0,0,6.26,6.26q3.09.23,9,.23h15.47c3.81,0,4.66-.08,6.78-.23s4.35-.72,5.33-1.7a7,7,0,0,0,1.7-4.56,62.68,62.68,0,0,0,.24-6.67V161.79c0-1.9,0-3.8-.08-5.7,0-1.56.14-3.51-.58-4.92A4.51,4.51,0,0,0,244,149.8a10.25,10.25,0,0,0-5.45-1.75c-2.47-.18-4.94-.25-7.41-.23-2.81,0-6-.26-8.32,1.7-2,1.66-2.5,4.37-3.47,6.74-2.49,6.1-7.57,9.05-13.49,11.1a9.38,9.38,0,0,0-3.63,2.16Q200.86,170.91,200.85,174.16Z"/><path class="cls-1" d="M329.63,150.43v0Z"/><path class="cls-1" d="M329.63,150.48a2.69,2.69,0,0,0-2.69-2.66H273.89c-3.56,0-9.06-.42-12.49.64a5.79,5.79,0,0,0-3.62,2.87c-.69,1.5-.51,3.33-.56,4.95-.06,1.83-.07,3.67-.07,5.51v46.4c0,3.92.07,6.91.23,9a5.87,5.87,0,0,0,6.26,6.27c2.06.15,6.33.23,10.25.23h15.46c3.82,0,8-.08,10.11-.23a7.08,7.08,0,0,0,4.64-1.71,7,7,0,0,0,1.71-4.56q.22-3.09.23-9V177.26c0-3.82.08-6.78.23-8.9a7.17,7.17,0,0,1,1.7-4.64h0a2.77,2.77,0,0,1,1.94-.81h7.23A12.47,12.47,0,0,0,329.63,150.48Z"/><path class="cls-1" d="M406.56,199.1a7,7,0,0,0,4.56,1.7c2.07.15,6.86.23,10.78.23h61.87c3.82,0,6.78-.08,8.9-.23a6.16,6.16,0,0,0,4.29-1.7,7,7,0,0,0,1.71-4.56q.22-3.1.23-9V161.79c0-1.93-.06-3.85-.1-5.77s.13-3.72-.94-5.34a6.2,6.2,0,0,0-3.86-2.45,29.6,29.6,0,0,0-5.15-.35c-1.69-.09-3.39-.06-5.08-.06H468.31c-3.29,0-6.94-.27-10.18.35a6.4,6.4,0,0,0-3.37,1.66c-1.58,1.61-1.66,3.88-1.78,6s-.22,21.19-.37,23.25a5.86,5.86,0,0,1-6.34,6.26c-2.12.16-5.09.23-8.9.23s-6.91-.07-9-.23a5.86,5.86,0,0,1-6.26-6.26c-.16-2.06-.24-18.4-.24-21.08a37,37,0,0,0-.15-6.75,4.39,4.39,0,0,0-1.45-2.58c-1.55-1.21-3.79-1.07-5.65-1.1a31.28,31.28,0,0,0-6.77.4,3.55,3.55,0,0,0-2.25,1.23,4.77,4.77,0,0,0-.85,2.4,14.78,14.78,0,0,0-.15,2.47v31.5q0,5.88.23,9A7,7,0,0,0,406.56,199.1Z"/><path class="cls-1" d="M553.4,149.91a6,6,0,0,0-1.79-1.35c-1.63-.77-3.6-.62-5.35-.67s-3.69-.07-5.53-.07c-2.36,0-5.27-.42-7.29,1a8.89,8.89,0,0,0-2.48,3.58c-1.59,3.32-3.07,6.72-5.7,9.35a16,16,0,0,1-5.42,3.71c-1.85.73-3.53,1.34-5,1.86a9.5,9.5,0,0,0-3.64,2.16c-.92.93-1.39,2.48-1.39,4.64v34q0,5.88.23,9a5.88,5.88,0,0,0,6.27,6.27q3.09.23,9,.23h15.47c3.81,0,6.78-.08,8.89-.23a4.23,4.23,0,0,0,3.49-1.71,7,7,0,0,0,1.7-4.56q.23-3.09.23-9v-46.4c0-2.22,0-4.44-.11-6.66C554.85,153.12,554.87,151.48,553.4,149.91Z"/><path class="cls-1" d="M723.18,209.2a4.68,4.68,0,0,0-2.4-.85c-1-.1-2.24-.16-3.79-.16h-88.6q-5.88,0-9-.23a5.86,5.86,0,0,1-6.27-6.26q-.23-3.1-.23-9V177.26c0-3.82.08-27.52.23-29.64a7.15,7.15,0,0,1,1.7-4.64c1-1,2.5-2.55,4.57-2.7s16.31-.23,20.13-.23h7.88a35.39,35.39,0,0,0,3.79-.16,4.68,4.68,0,0,0,2.4-.85,3.54,3.54,0,0,0,1.24-2.24,32.6,32.6,0,0,0,0-9,3.54,3.54,0,0,0-1.24-2.24,4.77,4.77,0,0,0-2.4-.86c-1-.1-2.24-.15-3.79-.15H639.7c-3.92,0-18.22,0-20.28-.15a12.75,12.75,0,0,1-4.57-.86,2.83,2.83,0,0,1-1.7-2.24,33.2,33.2,0,0,1-.23-4.48,33.37,33.37,0,0,0-.23-4.49,2.83,2.83,0,0,0-1.7-2.24,12.87,12.87,0,0,0-4.64-.85c-2.12-.1-5.08-.16-8.9-.16s-6.91.06-9,.16a12.55,12.55,0,0,0-4.56.85,2.81,2.81,0,0,0-1.7,2.24,31.46,31.46,0,0,0-.24,4.49,31.61,31.61,0,0,1-.23,4.48,2.81,2.81,0,0,1-1.7,2.24,13,13,0,0,1-4.64.86c-2.11.1-5.08.15-8.89.15h-7.74c-1.54,0-23.55,0-24.53.15a4.7,4.7,0,0,0-2.39.86,3.49,3.49,0,0,0-1.24,2.24,32.6,32.6,0,0,0,0,9,3.49,3.49,0,0,0,1.24,2.24,4.61,4.61,0,0,0,2.39.85c1,.11,23,.16,24.53.16a31.77,31.77,0,0,1,4.49.23c1,.15,1.78,1.72,2.24,2.7a12.82,12.82,0,0,1,.85,4.64c.1,2.12.16,25.82.16,29.64v18.56q0,3.24,1.39,4.64a9.29,9.29,0,0,0,3.63,2.16q2.25.78,5,1.86a15.86,15.86,0,0,1,5.41,3.71,16,16,0,0,1,3.72,5.42c.72,1.85,1.34,3.53,1.85,5a9.39,9.39,0,0,0,2.17,3.64c.93.92,2.47,1.39,4.64,1.39H717a35.39,35.39,0,0,0,3.79-.16,4.68,4.68,0,0,0,2.4-.85,3.54,3.54,0,0,0,1.24-2.24,32.6,32.6,0,0,0,0-9A3.54,3.54,0,0,0,723.18,209.2Z"/><path class="cls-1" d="M722.79,149.28a8.48,8.48,0,0,0-4.64-1.28c-2.11-.12-9.9-.18-13.71-.18H642.57q-5.88,0-9,.18a8.34,8.34,0,0,0-4.56,1.28,4.68,4.68,0,0,0-1.7,3.5,40.45,40.45,0,0,0-.23,5.21v35a7.69,7.69,0,0,0,.23,2.72,4.6,4.6,0,0,0,1.7,3.44,8.33,8.33,0,0,0,4.56,1.29q3.09.17,9,.17h61.87c3.81,0,11.6-.06,13.71-.17a8.47,8.47,0,0,0,4.64-1.29,4.64,4.64,0,0,0,1.71-3.44,8,8,0,0,0,.23-2.72V158a42.4,42.4,0,0,0-.23-5.21A4.72,4.72,0,0,0,722.79,149.28ZM704.44,180.5q0,4.78-.23,7.29a5.17,5.17,0,0,1-1.7,3.71,8.06,8.06,0,0,1-4.64,1.38c-2.12.13-5.08.19-8.9.19s-6.91-.06-9-.19a7.9,7.9,0,0,1-4.56-1.38,5.13,5.13,0,0,1-1.7-3.71c-.16-1.67-.23-4.1-.23-7.29V167.93c0-3.1.07-5.51.23-7.23a5.22,5.22,0,0,1,1.7-3.77,8.05,8.05,0,0,1,4.56-1.38q3.09-.2,9-.19c3.82,0,6.78.06,8.9.19a8.21,8.21,0,0,1,4.64,1.38,5.26,5.26,0,0,1,1.7,3.77q.22,2.58.23,7.23Z"/><path class="cls-2" d="M936.51,250.31V112.9a1.88,1.88,0,0,0-.55-1.32l-12.4-12.4a1.86,1.86,0,0,0-1.32-.55H784.83a1.88,1.88,0,0,0-1.32.55l-12.4,12.4a1.88,1.88,0,0,0-.55,1.32V250.31a1.86,1.86,0,0,0,.55,1.32l12.4,12.4a1.88,1.88,0,0,0,1.32.55H922.24a1.86,1.86,0,0,0,1.32-.55l12.4-12.4A1.86,1.86,0,0,0,936.51,250.31ZM927,241.38a4.65,4.65,0,0,1-1.37,3.3l-9.55,9.55a2.8,2.8,0,0,1-2,.82H793a2.84,2.84,0,0,1-2-.82l-10.09-10.09a2.83,2.83,0,0,1-.81-2V121.06a2.79,2.79,0,0,1,.81-2l9.55-9.55a4.7,4.7,0,0,1,3.3-1.37H914.08a2.77,2.77,0,0,1,2,.83l10.09,10.09a2.77,2.77,0,0,1,.83,2Z"/><path class="cls-2" d="M973.34,165.08v-64a18.72,18.72,0,0,0-5.48-13.22L947.74,67.8a18.76,18.76,0,0,0-13.28-5.55h-64a17.77,17.77,0,0,0-16.77,11.93A17.77,17.77,0,0,0,837,62.25H773.77a20.42,20.42,0,0,0-14.53,6L739.61,87.9a18.81,18.81,0,0,0-5.49,13.23v39.6a26.81,26.81,0,0,0-14.91-5c-3.47-.2-14.66-.21-14.77-.21H674.23a35.76,35.76,0,0,0-.58-4.61,22.33,22.33,0,0,0-8.53-13.79,23.59,23.59,0,0,0-11.91-4.58,56.83,56.83,0,0,0-5.78-.26H639.7l-9.08,0a21.86,21.86,0,0,0-11.44-12.59A30.78,30.78,0,0,0,607.26,97c-2.46-.12-5.76-.18-9.81-.18s-7.5.06-9.94.18a30.44,30.44,0,0,0-11.79,2.67,21.82,21.82,0,0,0-11.45,12.62h-5.49c-7.23,0-24.3,0-26.53.26a23.59,23.59,0,0,0-11.89,4.58,22.23,22.23,0,0,0-8.53,13.79,41.46,41.46,0,0,0-.69,8.28c0,1.69.06,3.2.17,4.58a25.6,25.6,0,0,0-13-7.34,34.54,34.54,0,0,0-7.7-.81h-.18c-.21,0-.42,0-.62,0-1.5-.07-2.88-.08-4-.08H468.31l-2,0c-.92,0-1.85,0-2.78,0a47.29,47.29,0,0,0-9,.76,25.35,25.35,0,0,0-13.4,7,24.93,24.93,0,0,0-3.2,4,22.87,22.87,0,0,0-5.8-6.8c-6.53-5.11-13.65-5.15-16.66-5.17H415l-2,0a44.76,44.76,0,0,0-8.87.78,24.1,24.1,0,0,0-5.22,1.66,24.94,24.94,0,0,0-7.35-1.91,56.83,56.83,0,0,0-5.78-.26H364.45c-1.93,0-3.87,0-5.81-.06h-.18c-2.19,0-4.4-.06-6.6-.06-3.13,0-5.75.06-8.25.2a25.84,25.84,0,0,0-8.06,1.71,21.42,21.42,0,0,0-8.61-1.79H273.89l-1.87,0h-.14c-1.11,0-2.29-.05-3.48-.05A43.13,43.13,0,0,0,255.76,137a25.94,25.94,0,0,0-4.35,1.78,31.4,31.4,0,0,0-11.45-3c-2.6-.18-5.31-.28-8.08-.28h-2.43c-2.78,0-9.56,0-16.13,4.14a23.81,23.81,0,0,0-10.91-3.88c-2.35-.24-6.77-.26-7.64-.26H154.16a30.82,30.82,0,0,0-11.78,2.1A26.7,26.7,0,0,0,133,144a25.18,25.18,0,0,0-5.35,9.08l-.09.24c-.2.56-.41,1.12-.62,1.68-1.11.42-2.12.79-3,1.1A28.41,28.41,0,0,0,113,162.87c-4.59,4.58-7,10.87-7,18.19v34c0,4.44.09,7.85.29,10.4a24.84,24.84,0,0,0,23.94,23.95c2.57.19,6,.29,10.41.29h97.65a57.31,57.31,0,0,0,5.73-.25,24.3,24.3,0,0,0,8.51-2.44,28.06,28.06,0,0,0,9.68,2.4c3.43.26,9.31.29,11.68.29h15.46c2.3,0,8,0,11.51-.28a27.72,27.72,0,0,0,10.91-3,27.4,27.4,0,0,0,10.8,3c2.52.19,6.16.29,10.83.29H494.94a20.62,20.62,0,0,0,8.65-1.81c.61-.24,1.21-.51,1.79-.79a28.26,28.26,0,0,0,9.47,2.31c2.57.19,6,.29,10.41.29h15.47c4.32,0,7.69-.09,10.29-.28a23,23,0,0,0,15.53-7.15l.11-.12a24,24,0,0,0,4.52-6.31,27.26,27.26,0,0,0,5,6.86c4.58,4.58,10.87,7,18.19,7H717a57.31,57.31,0,0,0,5.73-.25,23.69,23.69,0,0,0,11.4-4.2v17.3a18.69,18.69,0,0,0,5.48,13.23L759.83,296A18.59,18.59,0,0,0,773,301.46h64a17.77,17.77,0,0,0,16.77-11.93,17.77,17.77,0,0,0,16.77,11.93h64A18.82,18.82,0,0,0,947.68,296l19.63-19.64a20.39,20.39,0,0,0,6-14.54V198.63a17.78,17.78,0,0,0-11.94-16.77A17.8,17.8,0,0,0,973.34,165.08Zm-754-8.82c1-2.37,1.52-5.08,3.47-6.74,2.3-2,5.51-1.68,8.32-1.7,2.47,0,4.94.05,7.41.23A10.25,10.25,0,0,1,244,149.8a4.51,4.51,0,0,1,1.16,1.37c.72,1.41.53,3.36.58,4.92.06,1.9.08,3.8.08,5.7v25.66a62.68,62.68,0,0,1-.24,6.67,7,7,0,0,1-1.7,4.56c-1,1-3.22,1.55-5.33,1.7s-3,.23-6.78.23H216.32q-5.88,0-9-.23a5.86,5.86,0,0,1-6.26-6.26,62.68,62.68,0,0,1-.24-6.67V174.16q0-3.24,1.4-4.64a9.38,9.38,0,0,1,3.63-2.16C211.8,165.31,216.88,162.36,219.37,156.26Zm26.35,64.15a3.54,3.54,0,0,1-1.24,2.24,4.68,4.68,0,0,1-2.4.85,35.39,35.39,0,0,1-3.79.16H140.64q-5.88,0-9-.23a5.87,5.87,0,0,1-6.26-6.27q-.23-3.09-.23-9v-34q0-3.24,1.39-4.64a9.53,9.53,0,0,1,3.63-2.16c1.5-.52,3.18-1.13,5-1.86a17.87,17.87,0,0,0,9.13-9.12c.43-1.12.86-2.25,1.27-3.38a7.16,7.16,0,0,1,1.42-2.77,7.27,7.27,0,0,1,2.57-1.74c2.14-.87,4.48-.67,6.74-.67h38.42c1.55,0,4.66.05,5.64.16a4.68,4.68,0,0,1,2.4.85,3.54,3.54,0,0,1,1.24,2.24,9.76,9.76,0,0,1,.31,3,25,25,0,0,1-.31,4.48,3.54,3.54,0,0,1-1.24,2.24,4.77,4.77,0,0,1-2.4.86c-1,.1-4.09.15-5.64.15H187q-5.88,0-9,.23a7.09,7.09,0,0,0-4.57,1.7,7.17,7.17,0,0,0-1.7,4.64c-.15,2.12-.23,5.08-.23,8.9v15.47q0,5.86.23,9a5.86,5.86,0,0,0,6.27,6.26q3.09.22,9,.23h51.25c1.55,0,2.81.06,3.79.16a4.68,4.68,0,0,1,2.4.85,3.54,3.54,0,0,1,1.24,2.24,32.6,32.6,0,0,1,0,9Zm158.91-66.35a14.78,14.78,0,0,1,.15-2.47,4.77,4.77,0,0,1,.85-2.4,3.55,3.55,0,0,1,2.25-1.23,31.28,31.28,0,0,1,6.77-.4c1.86,0,4.1-.11,5.65,1.1a4.39,4.39,0,0,1,1.45,2.58,37,37,0,0,1,.15,6.75c0,2.68.08,19,.24,21.08a5.86,5.86,0,0,0,6.26,6.26c2.06.16,5.05.23,9,.23s6.78-.07,8.9-.23a5.86,5.86,0,0,0,6.34-6.26c.15-2.06.25-21.26.37-23.25s.2-4.38,1.78-6a6.4,6.4,0,0,1,3.37-1.66c3.24-.62,6.89-.35,10.18-.35h15.46c1.69,0,3.39,0,5.08.06a29.6,29.6,0,0,1,5.15.35,6.2,6.2,0,0,1,3.86,2.45c1.07,1.62.9,3.5.94,5.34s.1,3.84.1,5.77v23.77q0,5.88-.23,9A7,7,0,0,1,497,199.1a6.16,6.16,0,0,1-4.29,1.7c-2.12.15-5.08.23-8.9.23H421.9c-3.92,0-8.71-.08-10.78-.23a5.86,5.86,0,0,1-6.26-6.26q-.23-3.1-.23-9Zm-94.71,8.84a2.77,2.77,0,0,0-1.94.81h0a7.17,7.17,0,0,0-1.7,4.64c-.15,2.12-.23,5.08-.23,8.9v30.93q0,5.88-.23,9a7,7,0,0,1-1.71,4.56,7.08,7.08,0,0,1-4.64,1.71c-2.11.15-6.29.23-10.11.23H273.89c-3.92,0-8.19-.08-10.25-.23a5.87,5.87,0,0,1-6.26-6.27c-.16-2.06-.23-5-.23-9v-46.4c0-1.84,0-3.68.07-5.51,0-1.62-.13-3.45.56-4.95a5.79,5.79,0,0,1,3.62-2.87c3.43-1.06,8.93-.64,12.49-.64h53.05a2.69,2.69,0,0,1,2.69,2.66v0a12.47,12.47,0,0,1-12.48,12.42Zm188.84,57.51a3.57,3.57,0,0,1-1.23,2.24,4.68,4.68,0,0,1-2.4.85c-1,.11,1.35.16-.2.16H333.4c-3.93,0-7.33-.08-9.4-.23a5.87,5.87,0,0,1-6.26-6.27q-.23-3.09-.23-9v-34q0-3.24,1.39-4.64a9.5,9.5,0,0,1,3.64-2.16c1.49-.52,3.59-1.13,5.44-1.86a16,16,0,0,0,5.42-3.71c2.91-2.91,4.42-6.78,6.29-10.38a7.36,7.36,0,0,1,1.85-2.57,5.62,5.62,0,0,1,3.13-1c6.55-.36,13.22-.05,19.78-.05h21.32a35.39,35.39,0,0,1,3.79.16,4.68,4.68,0,0,1,2.4.85,3.54,3.54,0,0,1,1.24,2.24,9.76,9.76,0,0,1,.31,3,25,25,0,0,1-.31,4.48,3.54,3.54,0,0,1-1.24,2.24,4.77,4.77,0,0,1-2.4.86c-1,.1-2.24.15-3.79.15h-6q-5.88,0-9,.23a7.09,7.09,0,0,0-4.57,1.7,7.17,7.17,0,0,0-1.7,4.64c-.15,2.12-.23,5.08-.23,8.9v15.47q0,5.86.23,9a5.86,5.86,0,0,0,6.27,6.26q3.09.22,9,.23H494.93c1.55,0-.78.06.2.16a4.68,4.68,0,0,1,2.4.85,3.57,3.57,0,0,1,1.23,2.24,32.6,32.6,0,0,1,0,9ZM555,208.19q0,5.88-.23,9a7,7,0,0,1-1.7,4.56,4.23,4.23,0,0,1-3.49,1.71c-2.11.15-5.08.23-8.89.23H525.26q-5.88,0-9-.23a5.88,5.88,0,0,1-6.27-6.27q-.22-3.09-.23-9v-34c0-2.16.47-3.71,1.39-4.64a9.5,9.5,0,0,1,3.64-2.16c1.49-.52,3.17-1.13,5-1.86a16,16,0,0,0,5.42-3.71c2.63-2.63,4.11-6,5.7-9.35a8.89,8.89,0,0,1,2.48-3.58c2-1.46,4.93-1,7.29-1,1.84,0,3.68,0,5.53.07s3.72-.1,5.35.67a6,6,0,0,1,1.79,1.35c1.47,1.57,1.45,3.21,1.53,5.22.09,2.22.11,4.44.11,6.66Zm169.38,12.22a3.54,3.54,0,0,1-1.24,2.24,4.68,4.68,0,0,1-2.4.85,35.39,35.39,0,0,1-3.79.16H594.36c-2.17,0-3.71-.47-4.64-1.39a9.39,9.39,0,0,1-2.17-3.64c-.51-1.49-1.13-3.17-1.85-5a16,16,0,0,0-3.72-5.42,15.86,15.86,0,0,0-5.41-3.71q-2.77-1.08-5-1.86a9.29,9.29,0,0,1-3.63-2.16q-1.39-1.4-1.39-4.64V177.26c0-3.82-.06-27.52-.16-29.64a12.82,12.82,0,0,0-.85-4.64c-.46-1-1.21-2.55-2.24-2.7a31.77,31.77,0,0,0-4.49-.23c-1.54,0-23.55-.05-24.53-.16a4.61,4.61,0,0,1-2.39-.85,3.49,3.49,0,0,1-1.24-2.24,32.6,32.6,0,0,1,0-9,3.49,3.49,0,0,1,1.24-2.24,4.7,4.7,0,0,1,2.39-.86c1-.1,23-.15,24.53-.15h7.74c3.81,0,6.78,0,8.89-.15a13,13,0,0,0,4.64-.86,2.81,2.81,0,0,0,1.7-2.24,31.61,31.61,0,0,0,.23-4.48,31.46,31.46,0,0,1,.24-4.49,2.81,2.81,0,0,1,1.7-2.24,12.55,12.55,0,0,1,4.56-.85c2.06-.1,5-.16,9-.16s6.78.06,8.9.16a12.87,12.87,0,0,1,4.64.85,2.83,2.83,0,0,1,1.7,2.24,33.37,33.37,0,0,1,.23,4.49,33.2,33.2,0,0,0,.23,4.48,2.83,2.83,0,0,0,1.7,2.24,12.75,12.75,0,0,0,4.57.86c2.06.1,16.36.15,20.28.15h7.73c1.55,0,2.81,0,3.79.15a4.77,4.77,0,0,1,2.4.86,3.54,3.54,0,0,1,1.24,2.24,32.6,32.6,0,0,1,0,9,3.54,3.54,0,0,1-1.24,2.24,4.68,4.68,0,0,1-2.4.85,35.39,35.39,0,0,1-3.79.16h-7.88c-3.82,0-18.07.07-20.13.23s-3.59,1.72-4.57,2.7a7.15,7.15,0,0,0-1.7,4.64c-.15,2.12-.23,25.82-.23,29.64v15.47q0,5.86.23,9a5.86,5.86,0,0,0,6.27,6.26q3.09.22,9,.23H717c1.55,0,2.81.06,3.79.16a4.68,4.68,0,0,1,2.4.85,3.54,3.54,0,0,1,1.24,2.24,32.6,32.6,0,0,1,0,9Zm.31-27.42a8,8,0,0,1-.23,2.72,4.64,4.64,0,0,1-1.71,3.44,8.47,8.47,0,0,1-4.64,1.29c-2.11.11-9.9.17-13.71.17H642.57q-5.88,0-9-.17a8.33,8.33,0,0,1-4.56-1.29,4.6,4.6,0,0,1-1.7-3.44,7.69,7.69,0,0,1-.23-2.72V158a40.45,40.45,0,0,1,.23-5.21,4.68,4.68,0,0,1,1.7-3.5A8.34,8.34,0,0,1,633.6,148q3.09-.18,9-.18h61.87c3.81,0,11.6.06,13.71.18a8.48,8.48,0,0,1,4.64,1.28,4.72,4.72,0,0,1,1.71,3.5,42.4,42.4,0,0,1,.23,5.21Zm25.09-92.11a2.8,2.8,0,0,1,.82-2l19.64-19.64a4.65,4.65,0,0,1,3.3-1.37h63.18a1.86,1.86,0,0,1,1.86,1.86v1.89a1.86,1.86,0,0,1-1.86,1.86h-62a1.85,1.85,0,0,0-1.32.54L756,101.49a1.85,1.85,0,0,0-.54,1.32v62a1.86,1.86,0,0,1-1.86,1.86h-1.89a1.86,1.86,0,0,1-1.86-1.86Zm88.8,182.58a1.86,1.86,0,0,1-1.86,1.86h-64a2.84,2.84,0,0,1-2-.82l-20.18-20.18a2.84,2.84,0,0,1-.82-2V198.38a1.86,1.86,0,0,1,1.86-1.86h1.89a1.86,1.86,0,0,1,1.86,1.86v62a1.85,1.85,0,0,0,.54,1.32l17.45,17.45a1.85,1.85,0,0,0,1.32.54h62a1.86,1.86,0,0,1,1.86,1.86ZM782.9,270.18a2.8,2.8,0,0,1-2-.82l-15.13-15.13a2.84,2.84,0,0,1-.82-2V111a2.8,2.8,0,0,1,.82-2L780.37,94.4a4.65,4.65,0,0,1,3.3-1.37h140.5a2.8,2.8,0,0,1,2,.82L941.29,109a2.76,2.76,0,0,1,.82,2v140.5a4.67,4.67,0,0,1-1.36,3.3l-14.6,14.59a2.76,2.76,0,0,1-2,.82Zm174.35-8.62a4.64,4.64,0,0,1-1.37,3.3L936.24,284.5a2.8,2.8,0,0,1-2,.82h-64a1.86,1.86,0,0,1-1.86-1.86v-1.89a1.86,1.86,0,0,1,1.86-1.86h62a1.85,1.85,0,0,0,1.32-.54l17.45-17.45a1.85,1.85,0,0,0,.54-1.32v-62a1.87,1.87,0,0,1,1.87-1.86h1.88a1.86,1.86,0,0,1,1.86,1.86Zm0-96.73a1.86,1.86,0,0,1-1.86,1.86h-1.88a1.87,1.87,0,0,1-1.87-1.86v-62a1.85,1.85,0,0,0-.54-1.32L933.65,84a1.85,1.85,0,0,0-1.32-.54h-62a1.86,1.86,0,0,1-1.86-1.86V79.75a1.86,1.86,0,0,1,1.86-1.86h64a2.77,2.77,0,0,1,2,.83L956.43,98.9a2.8,2.8,0,0,1,.82,2Z"/><path class="cls-1" d="M751.68,166.69h1.89a1.86,1.86,0,0,0,1.86-1.86v-62a1.85,1.85,0,0,1,.54-1.32L773.42,84a1.85,1.85,0,0,1,1.32-.54h62a1.86,1.86,0,0,0,1.86-1.86V79.75a1.86,1.86,0,0,0-1.86-1.86H773.58a4.65,4.65,0,0,0-3.3,1.37L750.64,98.9a2.8,2.8,0,0,0-.82,2v64A1.86,1.86,0,0,0,751.68,166.69Z"/><path class="cls-1" d="M836.76,279.71h-62a1.85,1.85,0,0,1-1.32-.54L756,261.72a1.85,1.85,0,0,1-.54-1.32v-62a1.86,1.86,0,0,0-1.86-1.86h-1.89a1.86,1.86,0,0,0-1.86,1.86v63.95a2.84,2.84,0,0,0,.82,2l20.18,20.18a2.84,2.84,0,0,0,2,.82h64a1.86,1.86,0,0,0,1.86-1.86v-1.89A1.86,1.86,0,0,0,836.76,279.71Z"/><path class="cls-1" d="M936.24,78.72a2.77,2.77,0,0,0-2-.83h-64a1.86,1.86,0,0,0-1.86,1.86v1.89a1.86,1.86,0,0,0,1.86,1.86h62a1.85,1.85,0,0,1,1.32.54l17.45,17.45a1.85,1.85,0,0,1,.54,1.32v62a1.87,1.87,0,0,0,1.87,1.86h1.88a1.86,1.86,0,0,0,1.86-1.86v-64a2.8,2.8,0,0,0-.82-2Z"/><path class="cls-1" d="M955.39,196.52h-1.88a1.87,1.87,0,0,0-1.87,1.86v62a1.85,1.85,0,0,1-.54,1.32l-17.45,17.45a1.85,1.85,0,0,1-1.32.54h-62a1.86,1.86,0,0,0-1.86,1.86v1.89a1.86,1.86,0,0,0,1.86,1.86h64a2.8,2.8,0,0,0,2-.82l19.64-19.64a4.64,4.64,0,0,0,1.37-3.3V198.38A1.86,1.86,0,0,0,955.39,196.52Z"/><path class="cls-1" d="M926.15,269.36l14.6-14.59a4.67,4.67,0,0,0,1.36-3.3V111a2.76,2.76,0,0,0-.82-2L926.15,93.85a2.8,2.8,0,0,0-2-.82H783.67a4.65,4.65,0,0,0-3.3,1.37L765.78,109a2.8,2.8,0,0,0-.82,2V252.24a2.84,2.84,0,0,0,.82,2l15.13,15.13a2.8,2.8,0,0,0,2,.82H924.17A2.76,2.76,0,0,0,926.15,269.36Zm-3.91-4.78H784.83a1.88,1.88,0,0,1-1.32-.55l-12.4-12.4a1.86,1.86,0,0,1-.55-1.32V112.9a1.88,1.88,0,0,1,.55-1.32l12.4-12.4a1.88,1.88,0,0,1,1.32-.55H922.24a1.86,1.86,0,0,1,1.32.55l12.4,12.4a1.88,1.88,0,0,1,.55,1.32V250.31a1.86,1.86,0,0,1-.55,1.32L923.56,264A1.86,1.86,0,0,1,922.24,264.58Z"/><path class="cls-1" d="M845.13,167a6.84,6.84,0,0,0,3.72,1q2.52.15,7.3.15c3.1,0,5.52,0,7.24-.15a11,11,0,0,0,1.22-.12,5.59,5.59,0,0,0,2.55-.92,3.8,3.8,0,0,0,1.39-2.81c.12-1.25.19-3.09.19-5.5v-9.49c0-2.34-.07-4.17-.19-5.46a3.84,3.84,0,0,0-1.39-2.85,5.46,5.46,0,0,0-2.38-.89,11.09,11.09,0,0,0-1.39-.16c-1.72-.09-4.14-.14-7.24-.14s-5.62,0-7.3.14a6.92,6.92,0,0,0-3.72,1.05,3.82,3.82,0,0,0-1.37,2.85c-.13,1.29-.19,3.12-.19,5.46v9.49c0,2.41.06,4.25.19,5.5A3.79,3.79,0,0,0,845.13,167Z"/><path class="cls-1" d="M916.06,109a2.77,2.77,0,0,0-2-.83H793.76a4.7,4.7,0,0,0-3.3,1.37l-9.55,9.55a2.79,2.79,0,0,0-.81,2V242.15a2.83,2.83,0,0,0,.81,2L791,254.23a2.84,2.84,0,0,0,2,.82H914.08a2.8,2.8,0,0,0,2-.82l9.55-9.55a4.65,4.65,0,0,0,1.37-3.3V121.06a2.77,2.77,0,0,0-.83-2ZM903.65,224.64a10.88,10.88,0,0,1-.23,3.24,5.85,5.85,0,0,1-1.75,4.1,7.87,7.87,0,0,1-4.74,1.53c-2.16.14-10.12.21-14,.21H819.62q-6,0-9.17-.21a7.76,7.76,0,0,1-4.67-1.53,5.89,5.89,0,0,1-1.74-4.1,10.88,10.88,0,0,1-.23-3.24v-41.7a57.49,57.49,0,0,1,.23-6.21,6,6,0,0,1,1.74-4.17,7.76,7.76,0,0,1,4.67-1.53l1.11-.06v0a5.88,5.88,0,0,0,3-1c.75-.57,1.48-2.59,1.48-4.57h0v-27a37,37,0,0,1,.18-4.33,4.07,4.07,0,0,1,1.3-2.91,6.12,6.12,0,0,1,3.49-1.06c1.58-.1,3.86-.15,6.86-.15H875.2c2.92,0,8.86,0,10.48.15a6.25,6.25,0,0,1,3.55,1.06,4.11,4.11,0,0,1,1.3,2.91,37,37,0,0,1,.18,4.33V163.6h0v1.57c0,2.3.73,4.23,1.47,4.8a6.35,6.35,0,0,0,3.49,1h.19l.84,0H897a7.74,7.74,0,0,1,4.64,1.52,6,6,0,0,1,1.75,4.17,57.49,57.49,0,0,1,.23,6.21Z"/><path class="cls-1" d="M870.79,185.92a9.11,9.11,0,0,0-5-1.38c-1.39-.08-3.11-.13-5.18-.16-1.33,0-2.8,0-4.4,0q-6.33,0-9.66.19a9,9,0,0,0-4.91,1.38,5,5,0,0,0-1.83,3.76c-.17,1.72-.25,4.14-.25,7.23v12.56q0,4.78.25,7.29a5,5,0,0,0,1.83,3.71,9.18,9.18,0,0,0,4.91,1.37q3.33.19,9.66.19,6.16,0,9.58-.19a9.29,9.29,0,0,0,5-1.37,5,5,0,0,0,1.83-3.71c.15-1.5.23-3.59.24-6.3,0-.32,0-.65,0-1V196.91c0-3.09-.08-5.51-.25-7.23A5.08,5.08,0,0,0,870.79,185.92Z"/><path class="cls-2" d="M901.67,172.56A7.74,7.74,0,0,0,897,171h-.32l-.84,0h-.19a6.35,6.35,0,0,1-3.49-1c-.74-.57-1.47-2.5-1.47-4.8V163.6h0V138.44a37,37,0,0,0-.18-4.33,4.11,4.11,0,0,0-1.3-2.91,6.25,6.25,0,0,0-3.55-1.06c-1.62-.1-7.56-.15-10.48-.15H827.91c-3,0-5.28,0-6.86.15a6.12,6.12,0,0,0-3.49,1.06,4.07,4.07,0,0,0-1.3,2.91,37,37,0,0,0-.18,4.33v27h0c0,2-.73,4-1.48,4.57a5.88,5.88,0,0,1-3,1v0l-1.11.06a7.76,7.76,0,0,0-4.67,1.53,6,6,0,0,0-1.74,4.17,57.49,57.49,0,0,0-.23,6.21v41.7a10.88,10.88,0,0,0,.23,3.24,5.89,5.89,0,0,0,1.74,4.1,7.76,7.76,0,0,0,4.67,1.53q3.16.21,9.17.21h63.29c3.9,0,11.86-.07,14-.21a7.87,7.87,0,0,0,4.74-1.53,5.85,5.85,0,0,0,1.75-4.1,10.88,10.88,0,0,0,.23-3.24v-41.7a57.49,57.49,0,0,0-.23-6.21A6,6,0,0,0,901.67,172.56Zm-58.1-23.32c0-2.34.06-4.17.19-5.46a3.82,3.82,0,0,1,1.37-2.85,6.92,6.92,0,0,1,3.72-1.05q2.52-.13,7.3-.14c3.1,0,5.52,0,7.24.14a11.09,11.09,0,0,1,1.39.16,5.46,5.46,0,0,1,2.38.89,3.84,3.84,0,0,1,1.39,2.85c.12,1.29.19,3.12.19,5.46v9.49c0,2.41-.07,4.25-.19,5.5a3.8,3.8,0,0,1-1.39,2.81,5.59,5.59,0,0,1-2.55.92,11,11,0,0,1-1.22.12c-1.72.1-4.14.15-7.24.15s-5.62,0-7.3-.15a6.84,6.84,0,0,1-3.72-1,3.79,3.79,0,0,1-1.37-2.81c-.13-1.25-.19-3.09-.19-5.5Zm29.3,60.23c0,.34,0,.67,0,1,0,2.71-.09,4.8-.24,6.3a5,5,0,0,1-1.83,3.71,9.29,9.29,0,0,1-5,1.37q-3.42.19-9.58.19-6.33,0-9.66-.19a9.18,9.18,0,0,1-4.91-1.37,5,5,0,0,1-1.83-3.71q-.26-2.5-.25-7.29V196.91c0-3.09.08-5.51.25-7.23a5,5,0,0,1,1.83-3.76,9,9,0,0,1,4.91-1.38q3.33-.19,9.66-.19c1.6,0,3.07,0,4.4,0,2.07,0,3.79.08,5.18.16a9.11,9.11,0,0,1,5,1.38,5.08,5.08,0,0,1,1.83,3.76c.17,1.72.25,4.14.25,7.23Z"/></svg>